<svg width="68" height="68" viewBox="0 0 68 68" fill="none" xmlns="http://www.w3.org/2000/svg">
<path d="M55.2502 43.9167L51.2127 39.95L54.3293 36.8333H45.3335V31.1667H54.2585L51.2127 28.1208L55.2502 24.0833L65.1668 34L55.2502 43.9167ZM5.66683 14.1667V8.5H39.6668V14.1667H5.66683ZM18.4168 49.5833H26.9168V42.5H34.0002V34H26.9168V26.9167H18.4168V34H11.3335V42.5H18.4168V49.5833ZM8.50017 59.5C6.94183 59.5 5.60733 58.9447 4.49667 57.834C3.386 56.7233 2.83161 55.3898 2.8335 53.8333V22.6667C2.8335 21.1083 3.38883 19.7738 4.4995 18.6632C5.61017 17.5525 6.94372 16.9981 8.50017 17H36.8335C38.3918 17 39.7263 17.5553 40.837 18.666C41.9477 19.7767 42.5021 21.1102 42.5002 22.6667V53.8333C42.5002 55.3917 41.9448 56.7262 40.8342 57.8368C39.7235 58.9475 38.3899 59.5019 36.8335 59.5H8.50017ZM8.50017 53.8333H36.8335V22.6667H8.50017V53.8333Z" fill="#FAB915" stroke="white" stroke-width="2.5"/>
</svg>
