<svg width="68" height="68" viewBox="0 0 68 68" fill="none" xmlns="http://www.w3.org/2000/svg">
<path d="M55.7812 55.9813H55.9813V55.7812V12.2188V12.0188H55.7812H12.2188H12.0188V12.2188V55.7812V55.9813H12.2188H55.7812ZM9.5625 7.6375H58.4375C59.5024 7.6375 60.3625 8.49757 60.3625 9.5625V58.4375C60.3625 59.5024 59.5024 60.3625 58.4375 60.3625H9.5625C8.49757 60.3625 7.6375 59.5024 7.6375 58.4375V9.5625C7.6375 8.49757 8.49757 7.6375 9.5625 7.6375ZM44.8906 26.3625H32.6719C32.4901 26.3625 32.3406 26.213 32.3406 26.0312V22.8438C32.3406 22.662 32.4901 22.5125 32.6719 22.5125H44.8906C45.0724 22.5125 45.2219 22.662 45.2219 22.8438V26.0312C45.2219 26.213 45.0724 26.3625 44.8906 26.3625ZM44.8906 35.925H32.6719C32.4901 35.925 32.3406 35.7755 32.3406 35.5938V32.4062C32.3406 32.2245 32.4901 32.075 32.6719 32.075H44.8906C45.0724 32.075 45.2219 32.2245 45.2219 32.4062V35.5938C45.2219 35.7755 45.0724 35.925 44.8906 35.925ZM44.8906 45.4875H32.6719C32.4901 45.4875 32.3406 45.338 32.3406 45.1562V41.9688C32.3406 41.787 32.4901 41.6375 32.6719 41.6375H44.8906C45.0724 41.6375 45.2219 41.787 45.2219 41.9688V45.1562C45.2219 45.338 45.0724 45.4875 44.8906 45.4875ZM23.4975 26.1743C23.0369 25.7137 22.7781 25.0889 22.7781 24.4375C22.7781 23.7861 23.0369 23.1613 23.4975 22.7007C23.9582 22.24 24.5829 21.9812 25.2344 21.9812C25.8858 21.9812 26.5106 22.24 26.9712 22.7007C27.4318 23.1613 27.6906 23.7861 27.6906 24.4375C27.6906 25.0889 27.4318 25.7137 26.9712 26.1743C26.5106 26.635 25.8858 26.8937 25.2344 26.8937C24.5829 26.8937 23.9582 26.635 23.4975 26.1743ZM23.4975 35.7368C23.0369 35.2762 22.7781 34.6514 22.7781 34C22.7781 33.3486 23.0369 32.7238 23.4975 32.2632C23.9582 31.8025 24.5829 31.5438 25.2344 31.5438C25.8858 31.5438 26.5106 31.8025 26.9712 32.2632C27.4318 32.7238 27.6906 33.3486 27.6906 34C27.6906 34.6514 27.4318 35.2762 26.9712 35.7368C26.5106 36.1975 25.8858 36.4562 25.2344 36.4562C24.5829 36.4562 23.9582 36.1975 23.4975 35.7368ZM23.4975 45.2993C23.0369 44.8387 22.7781 44.2139 22.7781 43.5625C22.7781 42.9111 23.0369 42.2863 23.4975 41.8257C23.9582 41.365 24.5829 41.1063 25.2344 41.1063C25.8858 41.1063 26.5106 41.365 26.9712 41.8257C27.4318 42.2863 27.6906 42.9111 27.6906 43.5625C27.6906 44.2139 27.4318 44.8387 26.9712 45.2993C26.5106 45.76 25.8858 46.0187 25.2344 46.0187C24.5829 46.0187 23.9582 45.76 23.4975 45.2993Z" fill="#FAB915" stroke="white" stroke-width="0.4"/>
</svg>
