<svg width="68" height="68" viewBox="0 0 68 68" fill="none" xmlns="http://www.w3.org/2000/svg">
<path d="M45.1333 22.6667V22.8667H45.3333H54.5417C57.1682 22.8667 59.3 24.9985 59.3 27.625V40.375C59.3 41.637 58.7987 42.8473 57.9063 43.7397C57.014 44.632 55.8037 45.1333 54.5417 45.1333H45.3333H45.1333V45.3333V54.5417C45.1333 55.8037 44.632 57.014 43.7397 57.9063C42.8473 58.7987 41.637 59.3 40.375 59.3H27.625C26.363 59.3 25.1527 58.7987 24.2603 57.9063C23.368 57.014 22.8667 55.8037 22.8667 54.5417V45.3333V45.1333H22.6667H13.4583C12.1963 45.1333 10.986 44.632 10.0937 43.7397C9.20132 42.8473 8.7 41.637 8.7 40.375V27.625C8.7 24.9985 10.8318 22.8667 13.4583 22.8667H22.6667H22.8667V22.6667V13.4583C22.8667 10.8318 24.9985 8.7 27.625 8.7H40.375C43.0015 8.7 45.1333 10.8318 45.1333 13.4583V22.6667ZM27.625 12.55C27.3841 12.55 27.1531 12.6457 26.9827 12.816C26.8124 12.9864 26.7167 13.2174 26.7167 13.4583V24.7917C26.7167 25.3022 26.5139 25.7918 26.1528 26.1528C25.7918 26.5139 25.3022 26.7167 24.7917 26.7167H13.4583C13.2174 26.7167 12.9864 26.8124 12.816 26.9827C12.6457 27.1531 12.55 27.3841 12.55 27.625V40.375C12.55 40.8765 12.9569 41.2833 13.4583 41.2833H24.7917C25.3022 41.2833 25.7918 41.4861 26.1528 41.8472C26.5139 42.2082 26.7167 42.6978 26.7167 43.2083V54.5417C26.7167 55.0431 27.1235 55.45 27.625 55.45H40.375C40.6159 55.45 40.8469 55.3543 41.0173 55.184C41.1876 55.0136 41.2833 54.7826 41.2833 54.5417V43.2083C41.2833 42.6978 41.4861 42.2082 41.8472 41.8472C42.2082 41.4861 42.6978 41.2833 43.2083 41.2833H54.5417C54.7826 41.2833 55.0136 41.1876 55.184 41.0173C55.3543 40.8469 55.45 40.6159 55.45 40.375V27.625C55.45 27.3841 55.3543 27.1531 55.184 26.9827C55.0136 26.8124 54.7826 26.7167 54.5417 26.7167H43.2083C42.6978 26.7167 42.2082 26.5139 41.8472 26.1528C41.4861 25.7918 41.2833 25.3022 41.2833 24.7917V13.4583C41.2833 13.2174 41.1876 12.9864 41.0173 12.816C40.8469 12.6457 40.6159 12.55 40.375 12.55H27.625Z" fill="#FAB915" stroke="white" stroke-width="0.4"/>
</svg>
