<svg width="68" height="68" viewBox="0 0 68 68" fill="none" xmlns="http://www.w3.org/2000/svg">
<path d="M51 36.6334H17C15.5521 36.6334 14.3667 35.4479 14.3667 34C14.3667 32.5522 15.5521 31.3667 17 31.3667H51C52.4479 31.3667 53.6333 32.5522 53.6333 34C53.6333 35.4479 52.4479 36.6334 51 36.6334ZM45.3333 47.9667H11.3333C9.88546 47.9667 8.7 46.7813 8.7 45.3334C8.7 43.8855 9.88546 42.7 11.3333 42.7H45.3333C46.7812 42.7 47.9667 43.8855 47.9667 45.3334C47.9667 46.7813 46.7812 47.9667 45.3333 47.9667ZM22.6667 25.3C21.2188 25.3 20.0333 24.1146 20.0333 22.6667C20.0333 21.2188 21.2188 20.0334 22.6667 20.0334H56.6667C58.1145 20.0334 59.3 21.2188 59.3 22.6667C59.3 24.1146 58.1145 25.3 56.6667 25.3H22.6667Z" fill="#FAB915" stroke="white" stroke-width="0.4"/>
</svg>
