<svg width="64" height="68" viewBox="0 0 64 68" fill="none" xmlns="http://www.w3.org/2000/svg">
<path d="M39.2862 26.25V26.3311L39.3338 26.3968L55.4635 48.6417C56.3221 50.0776 56.75 51.6123 56.75 53.25V53.4564C56.6831 55.2942 56.0427 56.7946 54.8338 57.9755C53.6212 59.16 52.1691 59.75 50.4638 59.75H15.5362C13.9061 59.75 12.4705 59.1302 11.2198 57.8725C9.98627 56.6322 9.33053 55.1134 9.25227 53.3026L9.42927 52.9371L9.45426 52.8855V52.8281C9.45426 51.3345 9.8801 49.8696 10.7411 48.4302L26.6671 26.1846L26.7138 26.1193V26.0391V10.5352V10.2852H26.4638H24.3191C23.8587 10.2852 23.4092 10.0798 22.9668 9.62297C22.525 9.16664 22.3223 8.69884 22.3223 8.21484C22.3223 7.73233 22.5236 7.28477 22.9603 6.86599C23.4008 6.44355 23.8521 6.25 24.3191 6.25H41.6809C42.1479 6.25 42.5992 6.44355 43.0397 6.86599C43.4764 7.28477 43.6777 7.73233 43.6777 8.21484C43.6777 8.69884 43.475 9.16664 43.0332 9.62297C42.5908 10.0798 42.1413 10.2852 41.6809 10.2852H39.5362H39.2862V10.5352V26.25ZM26.2769 33.4669L26.2697 33.475L26.2632 33.4836L21.8717 39.3899L21.5749 39.7891H22.0723H43.9277H44.4149L44.1307 39.3933L39.7393 33.2761L39.7346 33.2696L39.7295 33.2634L38.6087 31.8954C37.0778 29.9007 36.0028 27.2773 35.3947 24.0121V10.5352V10.2852H35.1447H30.8553H30.6053V10.5352V24.2237C30.0662 27.2002 28.9938 29.8623 27.3897 32.2131L26.2769 33.4669ZM18.4963 44.4613L18.3696 44.4632L18.2962 44.5665L13.8111 50.8754C13.3474 51.3643 13.1415 52.1042 13.1415 53.0391C13.1415 53.7366 13.3877 54.3579 13.8694 54.8937C14.3483 55.4263 14.9056 55.7148 15.5362 55.7148H50.4638C51.0944 55.7148 51.6517 55.4263 52.1306 54.8937C52.6123 54.3579 52.8585 53.7366 52.8585 53.0391V53.0109L52.8523 52.9835C52.7156 52.3836 52.5949 51.911 52.4901 51.5685C52.4379 51.3975 52.3882 51.2546 52.3411 51.1425C52.301 51.0474 52.2526 50.949 52.1909 50.8782L47.3995 44.1403L47.3234 44.0332L47.192 44.0352L18.4963 44.4613Z" fill="#FAB915" stroke="white" stroke-width="0.5"/>
</svg>
