<svg width="68" height="68" viewBox="0 0 68 68" fill="none" xmlns="http://www.w3.org/2000/svg">
<path d="M11.3326 6.16663H11.3332H56.6665C58.091 6.16663 59.2987 6.66845 60.3164 7.68618C61.3342 8.7039 61.8349 9.91043 61.8332 11.3327V11.3333V45.3333C61.8332 46.7578 61.3314 47.9655 60.3136 48.9832C59.2959 50.001 58.0894 50.5017 56.6671 50.5H56.6665H16.9998H16.7927L16.6463 50.6464L6.1665 61.1262V11.3333C6.1665 9.90875 6.66832 8.70109 7.68606 7.68335C8.70378 6.66563 9.9103 6.1649 11.3326 6.16663ZM11.3332 5.66663H56.6665C58.2248 5.66663 59.5593 6.22196 60.67 7.33263C61.7807 8.4433 62.3351 9.77685 62.3332 11.3333V45.3333C62.3332 46.8916 61.7778 48.2261 60.6672 49.3368C59.5565 50.4475 58.2229 51.0019 56.6665 51L11.3332 5.66663ZM56.6665 45.8333H57.1665V45.3333V11.3333V10.8333H56.6665H11.3332H10.8332V11.3333V48.5208V49.7094L11.6828 48.8782L14.7954 45.8333H56.6665ZM39.1665 34.5V39.1666H17.4998V34.5H39.1665ZM50.4998 30.6666H17.4998V26H50.4998V30.6666ZM50.4998 22.1666H17.4998V17.5H50.4998V22.1666Z" fill="#FAB915" stroke="white"/>
</svg>
